<svg id="svg" version="1.1" xmlns="http://www.w3.org/2000/svg" xmlns:xlink="http://www.w3.org/1999/xlink" width="400" height="100.66666666666667" viewBox="0, 0, 400,100.66666666666667"><g id="svgg"><path id="path0" d="M130.333 61.333 C 130.333 61.611,130.216 61.670,129.625 61.686 C 128.479 61.717,128.416 61.736,128.440 62.042 C 128.456 62.245,128.342 62.333,128.065 62.333 C 127.756 62.333,127.667 62.423,127.667 62.731 C 127.667 63.008,127.578 63.123,127.375 63.106 C 127.069 63.082,127.050 63.146,127.019 64.292 C 127.003 64.890,126.947 65.000,126.656 65.000 C 126.328 65.000,126.314 65.077,126.364 66.625 C 126.410 68.052,126.452 68.247,126.708 68.227 C 126.941 68.208,127.000 68.338,127.000 68.867 C 127.000 69.391,127.070 69.550,127.333 69.618 C 127.518 69.667,127.667 69.846,127.667 70.019 C 127.667 70.216,127.784 70.333,127.981 70.333 C 128.154 70.333,128.333 70.482,128.382 70.667 C 128.448 70.919,128.609 71.000,129.048 71.000 C 129.488 71.000,129.649 71.081,129.715 71.333 C 129.797 71.646,129.942 71.667,132.068 71.667 C 134.222 71.667,134.333 71.650,134.333 71.333 C 134.333 71.062,134.444 71.000,134.932 71.000 C 135.391 71.000,135.552 70.922,135.618 70.667 C 135.667 70.482,135.846 70.333,136.019 70.333 C 136.222 70.333,136.333 70.215,136.333 70.000 C 136.333 69.778,136.444 69.667,136.667 69.667 C 136.889 69.667,137.000 69.556,137.000 69.333 C 137.000 69.111,137.111 69.000,137.333 69.000 C 137.652 69.000,137.667 68.889,137.667 66.401 C 137.667 63.942,137.649 63.797,137.333 63.715 C 137.150 63.667,137.000 63.517,137.000 63.382 C 137.000 63.246,136.850 63.096,136.667 63.048 C 136.482 63.000,136.333 62.821,136.333 62.647 C 136.333 62.444,136.215 62.333,136.000 62.333 C 135.778 62.333,135.667 62.222,135.667 62.000 C 135.667 61.724,135.556 61.667,135.019 61.667 C 134.512 61.667,134.353 61.594,134.285 61.333 C 134.204 61.024,134.058 61.000,132.266 61.000 C 130.444 61.000,130.333 61.019,130.333 61.333 M193.000 61.322 C 193.000 61.613,192.896 61.667,192.333 61.667 C 191.778 61.667,191.667 61.722,191.667 62.000 C 191.667 62.215,191.549 62.341,191.333 62.354 C 190.785 62.388,190.701 62.410,190.556 62.556 C 190.410 62.701,190.388 62.785,190.354 63.333 C 190.341 63.549,190.215 63.667,190.000 63.667 C 189.724 63.667,189.667 63.778,189.667 64.314 C 189.667 64.829,189.596 64.980,189.320 65.052 C 188.871 65.169,188.884 67.583,189.333 67.583 C 189.566 67.583,189.893 68.904,189.731 69.189 C 189.698 69.248,189.801 69.398,189.960 69.523 C 190.227 69.732,190.231 69.724,190.009 69.417 C 189.783 69.104,189.786 69.100,190.062 69.350 C 190.223 69.497,190.376 69.754,190.400 69.920 C 190.424 70.086,190.580 70.242,190.747 70.267 C 190.913 70.291,191.169 70.443,191.316 70.605 C 191.567 70.880,191.563 70.884,191.250 70.666 C 190.960 70.463,190.945 70.464,191.133 70.675 C 191.352 70.919,191.414 70.942,191.981 70.979 C 192.153 70.991,192.335 71.153,192.383 71.340 C 192.507 71.811,197.168 71.828,197.535 71.359 C 197.731 71.107,197.721 71.105,197.417 71.333 C 197.108 71.565,197.100 71.562,197.312 71.292 C 197.438 71.131,197.719 71.000,197.937 71.000 C 198.222 71.000,198.333 70.907,198.333 70.667 C 198.333 70.451,198.451 70.326,198.667 70.313 C 199.215 70.278,199.299 70.256,199.444 70.111 C 199.590 69.966,199.612 69.881,199.646 69.333 C 199.659 69.118,199.785 69.000,200.000 69.000 C 200.319 69.000,200.333 68.889,200.333 66.333 C 200.333 63.778,200.319 63.667,200.000 63.667 C 199.778 63.667,199.667 63.556,199.667 63.333 C 199.667 63.111,199.556 63.000,199.333 63.000 C 199.111 63.000,199.000 62.889,199.000 62.667 C 199.000 62.444,198.889 62.333,198.667 62.333 C 198.378 62.333,198.269 62.181,198.302 61.825 C 198.307 61.775,198.038 61.715,197.704 61.692 C 197.048 61.648,196.917 61.579,196.917 61.278 C 196.917 61.144,196.309 61.067,194.958 61.030 C 193.073 60.980,193.000 60.990,193.000 61.322 " stroke="none" fill="#ccc02c" fill-rule="evenodd"></path><path id="path1" d="M44.463 24.651 C 44.271 24.926,44.013 24.982,42.826 25.010 C 41.468 25.042,40.903 25.208,41.095 25.519 C 41.145 25.600,40.774 25.667,40.269 25.667 C 39.556 25.667,39.303 25.737,39.130 25.985 C 38.978 26.201,38.670 26.317,38.162 26.347 C 37.380 26.394,36.941 26.602,37.095 26.852 C 37.145 26.933,36.875 27.000,36.494 27.000 C 35.942 27.000,35.784 27.068,35.715 27.333 C 35.667 27.518,35.488 27.667,35.314 27.667 C 34.828 27.667,34.764 27.683,34.544 27.866 C 34.430 27.961,34.378 28.104,34.428 28.186 C 34.479 28.267,34.328 28.333,34.093 28.333 C 33.778 28.333,33.667 28.420,33.667 28.667 C 33.667 28.882,33.549 29.007,33.333 29.021 C 32.662 29.063,32.275 29.271,32.424 29.512 C 32.477 29.597,32.403 29.667,32.261 29.667 C 32.119 29.667,31.909 29.817,31.795 30.000 C 31.680 30.183,31.455 30.333,31.293 30.333 C 31.111 30.333,31.000 30.460,31.000 30.667 C 31.000 30.889,30.889 31.000,30.667 31.000 C 30.444 31.000,30.333 31.111,30.333 31.333 C 30.333 31.556,30.222 31.667,30.000 31.667 C 29.793 31.667,29.667 31.778,29.667 31.960 C 29.667 32.121,29.517 32.347,29.333 32.461 C 29.150 32.576,29.000 32.786,29.000 32.928 C 29.000 33.070,28.933 33.145,28.852 33.095 C 28.715 33.010,28.200 33.482,28.292 33.609 C 28.475 33.863,28.285 34.333,28.000 34.333 C 27.754 34.333,27.667 34.444,27.667 34.760 C 27.667 34.994,27.600 35.145,27.519 35.095 C 27.438 35.045,27.294 35.097,27.200 35.210 C 27.010 35.439,27.000 35.482,27.000 36.093 C 27.000 36.328,26.930 36.477,26.845 36.424 C 26.650 36.303,26.442 36.626,26.368 37.165 C 26.337 37.393,26.166 37.714,25.989 37.879 C 25.753 38.099,25.667 38.404,25.667 39.016 C 25.667 39.477,25.600 39.812,25.519 39.762 C 25.233 39.585,25.049 40.094,25.011 41.167 C 24.982 41.987,24.895 42.323,24.653 42.548 C 24.156 43.012,24.156 54.524,24.653 54.872 C 24.905 55.048,24.982 55.328,25.011 56.173 C 25.049 57.240,25.233 57.748,25.519 57.572 C 25.600 57.521,25.667 57.857,25.667 58.317 C 25.667 58.930,25.753 59.234,25.989 59.454 C 26.166 59.619,26.337 59.941,26.368 60.169 C 26.442 60.708,26.650 61.030,26.845 60.910 C 26.930 60.857,27.000 61.044,27.000 61.325 C 27.000 61.630,27.134 61.952,27.333 62.122 C 27.517 62.279,27.667 62.541,27.667 62.704 C 27.667 62.889,27.792 63.000,28.000 63.000 C 28.243 63.000,28.333 63.111,28.333 63.410 C 28.333 63.636,28.502 63.978,28.708 64.170 C 28.915 64.362,29.083 64.609,29.083 64.718 C 29.083 64.827,29.171 64.917,29.278 64.917 C 29.527 64.917,29.750 65.140,29.750 65.389 C 29.750 65.496,29.837 65.583,29.944 65.583 C 30.194 65.583,30.417 65.806,30.417 66.056 C 30.417 66.162,30.510 66.259,30.625 66.271 C 30.740 66.282,30.913 66.301,31.010 66.313 C 31.107 66.324,31.145 66.400,31.095 66.481 C 30.982 66.665,31.406 67.038,31.557 66.887 C 31.617 66.827,31.667 66.860,31.667 66.960 C 31.667 67.273,32.173 67.667,32.576 67.667 C 32.821 67.667,32.993 67.788,33.048 68.000 C 33.115 68.255,33.276 68.333,33.734 68.333 C 34.222 68.333,34.333 68.395,34.333 68.667 C 34.333 68.875,34.444 69.000,34.630 69.000 C 34.793 69.000,35.054 69.150,35.211 69.333 C 35.414 69.570,35.703 69.667,36.208 69.667 C 36.739 69.667,36.973 69.751,37.128 70.000 C 37.290 70.259,37.517 70.333,38.149 70.333 C 38.821 70.333,38.976 70.391,39.048 70.667 C 39.126 70.963,39.276 71.000,40.382 71.000 C 41.482 71.000,41.638 71.039,41.714 71.329 C 41.793 71.633,41.972 71.661,44.108 71.704 C 46.028 71.742,46.417 71.792,46.417 72.000 C 46.417 72.450,60.369 72.460,60.788 72.011 C 61.056 71.722,61.350 71.672,63.007 71.631 L 64.917 71.583 64.968 70.881 C 65.007 70.338,64.941 70.113,64.676 69.886 C 64.488 69.725,64.333 69.459,64.333 69.296 C 64.333 69.111,64.208 69.000,64.000 69.000 C 63.706 69.000,63.667 68.889,63.667 68.068 C 63.667 67.276,63.617 67.122,63.333 67.048 C 63.150 67.000,63.000 66.837,63.000 66.684 C 63.000 66.532,63.150 66.279,63.333 66.122 C 63.570 65.919,63.667 65.630,63.667 65.122 C 63.667 64.614,63.763 64.325,64.000 64.122 C 64.403 63.777,64.439 62.963,64.068 62.592 C 63.669 62.193,62.164 62.424,62.424 62.845 C 62.477 62.930,62.253 63.000,61.928 63.000 C 61.517 63.000,61.273 63.102,61.128 63.333 C 60.942 63.632,60.739 63.667,59.208 63.667 C 57.703 63.667,57.462 63.707,57.211 64.000 C 56.905 64.358,48.685 64.541,48.905 64.186 C 48.990 64.048,48.518 63.533,48.391 63.625 C 48.223 63.747,45.494 63.644,45.572 63.519 C 45.726 63.269,45.286 63.061,44.505 63.014 C 43.997 62.983,43.689 62.868,43.537 62.651 C 43.404 62.461,43.118 62.333,42.824 62.333 C 42.450 62.333,42.333 62.257,42.333 62.012 C 42.333 61.805,42.199 61.671,41.958 61.637 C 41.752 61.607,41.583 61.471,41.583 61.333 C 41.583 61.196,41.494 61.083,41.385 61.083 C 41.275 61.083,41.029 60.915,40.836 60.708 C 40.644 60.502,40.411 60.333,40.317 60.333 C 40.223 60.333,40.188 60.267,40.238 60.186 C 40.352 60.002,39.927 59.629,39.776 59.779 C 39.716 59.840,39.657 59.801,39.646 59.694 C 39.634 59.587,39.616 59.406,39.604 59.292 C 39.593 59.177,39.496 59.083,39.389 59.083 C 39.109 59.083,39.031 58.970,38.932 58.422 C 38.883 58.155,38.729 57.871,38.589 57.793 C 38.448 57.714,38.333 57.504,38.333 57.325 C 38.333 57.111,38.219 57.000,38.000 57.000 C 37.711 57.000,37.667 56.889,37.667 56.168 C 37.667 55.517,37.594 55.291,37.333 55.128 C 37.031 54.939,37.000 54.739,37.000 52.960 L 37.000 51.000 58.667 50.979 C 70.583 50.968,80.390 50.948,80.458 50.935 C 80.933 50.846,80.983 50.573,80.981 48.042 C 80.980 45.559,80.862 44.860,80.481 45.095 C 80.398 45.146,80.324 44.227,80.313 43.010 C 80.287 40.305,80.300 40.417,80.000 40.417 C 79.809 40.417,79.730 40.135,79.667 39.215 C 79.607 38.354,79.503 37.953,79.301 37.798 C 79.146 37.680,78.988 37.321,78.950 37.000 C 78.911 36.668,78.797 36.435,78.686 36.460 C 78.465 36.509,78.370 36.304,78.283 35.583 C 78.248 35.300,78.123 35.083,77.993 35.083 C 77.865 35.083,77.711 34.827,77.645 34.504 C 77.580 34.186,77.441 33.897,77.336 33.862 C 77.231 33.827,77.077 33.619,76.993 33.399 C 76.910 33.180,76.727 33.000,76.587 33.000 C 76.444 33.000,76.333 32.854,76.333 32.667 C 76.333 32.444,76.222 32.333,76.000 32.333 C 75.778 32.333,75.667 32.222,75.667 32.000 C 75.667 31.778,75.556 31.667,75.333 31.667 C 75.111 31.667,75.000 31.556,75.000 31.333 C 75.000 31.111,74.889 31.000,74.667 31.000 C 74.444 31.000,74.333 30.889,74.333 30.667 C 74.333 30.444,74.222 30.333,74.000 30.333 C 73.778 30.333,73.667 30.222,73.667 30.000 C 73.667 29.778,73.556 29.667,73.333 29.667 C 73.145 29.667,73.000 29.556,73.000 29.411 C 73.000 29.271,72.869 29.109,72.708 29.051 C 72.548 28.994,72.282 28.809,72.119 28.640 C 71.955 28.471,71.645 28.333,71.430 28.333 C 71.179 28.333,71.008 28.214,70.952 28.000 C 70.886 27.747,70.724 27.667,70.285 27.667 C 69.846 27.667,69.684 27.586,69.618 27.333 C 69.549 27.068,69.391 27.000,68.839 27.000 C 68.458 27.000,68.188 26.933,68.238 26.852 C 68.393 26.602,67.952 26.394,67.167 26.348 C 66.366 26.300,66.250 26.249,66.250 25.945 C 66.250 25.828,65.888 25.731,65.333 25.698 C 64.719 25.662,64.346 25.552,64.202 25.364 C 64.031 25.140,63.607 25.066,62.118 25.000 C 60.606 24.933,60.250 24.869,60.250 24.667 C 60.250 24.221,44.775 24.206,44.463 24.651 M109.218 24.650 C 108.968 24.919,108.662 24.983,107.498 25.010 C 106.135 25.042,105.569 25.208,105.762 25.519 C 105.812 25.600,105.437 25.667,104.928 25.667 C 104.183 25.667,103.962 25.732,103.795 26.000 C 103.629 26.266,103.406 26.333,102.694 26.333 C 101.942 26.333,101.788 26.386,101.715 26.667 C 101.647 26.928,101.488 27.000,100.981 27.000 C 100.444 27.000,100.333 27.057,100.333 27.333 C 100.333 27.611,100.222 27.667,99.667 27.667 C 99.111 27.667,99.000 27.722,99.000 28.000 C 99.000 28.271,98.889 28.333,98.401 28.333 C 97.942 28.333,97.782 28.411,97.715 28.667 C 97.659 28.880,97.488 29.000,97.237 29.000 C 97.022 29.000,96.689 29.169,96.497 29.375 C 96.305 29.581,96.058 29.750,95.949 29.750 C 95.839 29.750,95.749 29.825,95.747 29.917 C 95.744 30.173,94.849 31.000,94.576 31.000 C 94.442 31.000,94.333 31.150,94.333 31.333 C 94.333 31.556,94.222 31.667,94.000 31.667 C 93.778 31.667,93.667 31.778,93.667 32.000 C 93.667 32.218,93.556 32.333,93.345 32.333 C 93.138 32.333,93.004 32.467,92.970 32.708 C 92.941 32.915,92.804 33.083,92.667 33.083 C 92.529 33.083,92.417 33.173,92.417 33.282 C 92.417 33.391,92.248 33.638,92.042 33.830 C 91.835 34.022,91.667 34.355,91.667 34.570 C 91.667 34.821,91.547 34.992,91.333 35.048 C 91.078 35.115,91.000 35.276,91.000 35.734 C 91.000 36.222,90.938 36.333,90.667 36.333 C 90.458 36.333,90.333 36.444,90.333 36.630 C 90.333 36.793,90.183 37.054,90.000 37.211 C 89.761 37.416,89.667 37.703,89.667 38.229 C 89.667 38.814,89.602 38.978,89.342 39.046 C 89.075 39.116,89.009 39.304,88.967 40.107 C 88.929 40.841,88.855 41.083,88.667 41.083 C 88.467 41.083,88.407 41.383,88.368 42.583 C 88.314 44.284,88.263 44.521,87.963 44.460 C 87.796 44.426,87.742 45.225,87.713 48.155 C 87.678 51.765,87.763 52.500,88.186 52.238 C 88.267 52.188,88.333 52.786,88.333 53.573 C 88.333 55.390,88.446 55.823,88.852 55.572 C 88.933 55.521,89.000 55.822,89.000 56.240 C 89.000 56.658,89.006 57.056,89.014 57.125 C 89.042 57.368,89.373 57.662,89.519 57.572 C 89.600 57.521,89.667 57.792,89.667 58.172 C 89.667 58.724,89.734 58.882,90.000 58.952 C 90.253 59.018,90.333 59.179,90.333 59.618 C 90.333 60.058,90.414 60.219,90.667 60.285 C 90.942 60.357,91.121 60.832,90.958 61.058 C 90.867 61.185,91.381 61.657,91.519 61.572 C 91.600 61.521,91.667 61.672,91.667 61.907 C 91.667 62.222,91.754 62.333,92.000 62.333 C 92.242 62.333,92.333 62.444,92.333 62.737 C 92.333 62.992,92.594 63.397,93.042 63.835 C 93.431 64.217,93.750 64.617,93.750 64.723 C 93.750 64.830,93.844 64.926,93.958 64.938 C 94.073 64.949,94.246 64.968,94.343 64.979 C 94.440 64.991,94.479 65.067,94.428 65.148 C 94.315 65.331,94.740 65.705,94.890 65.554 C 94.951 65.494,95.000 65.527,95.000 65.627 C 95.000 65.946,95.509 66.333,95.929 66.333 C 96.222 66.333,96.333 66.425,96.333 66.667 C 96.333 66.882,96.444 67.000,96.647 67.000 C 96.821 67.000,97.000 67.149,97.048 67.333 C 97.115 67.589,97.276 67.667,97.734 67.667 C 98.222 67.667,98.333 67.729,98.333 68.000 C 98.333 68.219,98.444 68.333,98.658 68.333 C 98.837 68.333,99.048 68.448,99.126 68.589 C 99.205 68.729,99.489 68.884,99.757 68.932 C 100.025 68.981,100.380 69.166,100.545 69.344 C 100.754 69.567,101.069 69.667,101.570 69.667 C 102.148 69.667,102.312 69.732,102.379 69.991 C 102.449 70.258,102.637 70.325,103.440 70.366 C 104.175 70.404,104.417 70.479,104.417 70.667 C 104.417 70.860,104.679 70.928,105.583 70.966 C 106.946 71.023,107.185 71.084,107.127 71.363 C 107.072 71.620,107.075 71.621,109.564 71.646 C 111.491 71.665,111.634 71.689,111.717 72.006 C 111.836 72.462,122.250 72.456,122.250 72.000 C 122.250 71.796,122.620 71.735,124.250 71.667 L 126.250 71.583 126.301 70.799 C 126.342 70.155,126.289 69.975,126.009 69.800 C 125.774 69.654,125.667 69.411,125.667 69.028 C 125.667 68.609,125.583 68.447,125.333 68.382 C 125.023 68.300,125.000 68.154,125.000 66.221 C 125.000 65.057,125.065 64.187,125.148 64.238 C 125.468 64.436,125.716 63.643,125.461 63.236 C 125.241 62.884,123.391 62.945,123.134 63.312 C 122.938 63.591,122.670 63.648,121.327 63.695 C 120.061 63.739,119.750 63.799,119.750 64.000 C 119.750 64.211,119.307 64.257,116.946 64.296 C 115.289 64.323,114.180 64.279,114.236 64.190 C 114.431 63.874,113.871 63.708,112.502 63.676 C 111.047 63.642,110.917 63.610,110.917 63.278 C 110.917 63.065,110.854 63.052,109.750 63.021 C 109.118 63.003,109.000 62.948,109.000 62.667 C 109.000 62.389,108.889 62.333,108.333 62.333 C 107.778 62.333,107.667 62.278,107.667 62.000 C 107.667 61.754,107.556 61.667,107.240 61.667 C 107.006 61.667,106.855 61.600,106.905 61.519 C 106.955 61.438,106.903 61.294,106.790 61.200 C 106.567 61.015,106.508 61.000,106.000 61.000 C 105.778 61.000,105.667 60.889,105.667 60.667 C 105.667 60.444,105.556 60.333,105.333 60.333 C 105.111 60.333,105.000 60.222,105.000 60.000 C 105.000 59.778,104.889 59.667,104.667 59.667 C 104.444 59.667,104.333 59.556,104.333 59.333 C 104.333 59.111,104.222 59.000,104.000 59.000 C 103.715 59.000,103.525 58.529,103.708 58.276 C 103.800 58.148,103.285 57.677,103.148 57.762 C 103.067 57.812,103.000 57.661,103.000 57.427 C 103.000 57.111,102.913 57.000,102.667 57.000 C 102.383 57.000,102.333 56.889,102.333 56.256 C 102.333 55.738,102.236 55.423,102.014 55.215 C 101.838 55.051,101.664 54.654,101.628 54.333 C 101.586 53.969,101.472 53.750,101.322 53.750 C 101.139 53.750,101.072 53.444,101.034 52.441 C 100.992 51.299,100.943 51.121,100.655 51.045 C 100.211 50.929,100.223 45.583,100.667 45.583 C 100.951 45.583,100.951 45.583,100.979 43.990 C 100.991 43.343,101.067 42.855,101.148 42.905 C 101.293 42.995,101.625 42.702,101.652 42.458 C 101.660 42.390,101.667 42.042,101.667 41.686 C 101.667 41.179,101.739 41.020,102.000 40.952 C 102.253 40.886,102.333 40.724,102.333 40.285 C 102.333 39.846,102.414 39.684,102.667 39.618 C 102.922 39.552,103.000 39.391,103.000 38.932 C 103.000 38.444,103.062 38.333,103.333 38.333 C 103.517 38.333,103.667 38.224,103.667 38.091 C 103.667 37.818,104.494 36.923,104.750 36.919 C 104.842 36.918,104.917 36.829,104.917 36.722 C 104.917 36.473,105.140 36.250,105.389 36.250 C 105.496 36.250,105.583 36.137,105.583 36.000 C 105.583 35.862,105.752 35.726,105.958 35.697 C 106.199 35.663,106.333 35.529,106.333 35.322 C 106.333 35.091,106.449 35.000,106.744 35.000 C 106.969 35.000,107.289 34.855,107.455 34.677 C 107.620 34.499,107.968 34.315,108.229 34.268 C 108.489 34.221,108.788 34.071,108.893 33.934 C 108.997 33.798,109.346 33.658,109.667 33.624 C 110.033 33.585,110.250 33.473,110.250 33.322 C 110.250 33.144,110.560 33.062,111.470 33.000 C 112.401 32.936,112.729 32.847,112.854 32.625 C 113.002 32.360,113.384 32.333,117.101 32.333 C 119.434 32.333,121.147 32.397,121.095 32.481 C 120.918 32.767,121.428 32.951,122.500 32.989 C 123.620 33.028,123.750 33.069,123.750 33.378 C 123.750 33.479,124.013 33.591,124.333 33.628 C 124.654 33.664,125.051 33.838,125.215 34.014 C 125.381 34.192,125.735 34.333,126.016 34.333 C 126.293 34.333,126.479 34.400,126.428 34.481 C 126.343 34.619,126.815 35.133,126.942 35.042 C 127.196 34.859,127.667 35.048,127.667 35.333 C 127.667 35.556,127.778 35.667,128.000 35.667 C 128.222 35.667,128.333 35.778,128.333 36.000 C 128.333 36.222,128.444 36.333,128.667 36.333 C 128.889 36.333,129.000 36.444,129.000 36.667 C 129.000 36.889,129.111 37.000,129.333 37.000 C 129.556 37.000,129.667 37.111,129.667 37.333 C 129.667 37.556,129.778 37.667,130.000 37.667 C 130.245 37.667,130.333 37.778,130.333 38.085 C 130.333 38.315,130.483 38.632,130.667 38.789 C 130.850 38.946,131.000 39.207,131.000 39.370 C 131.000 39.556,131.125 39.667,131.333 39.667 C 131.611 39.667,131.667 39.778,131.667 40.333 C 131.667 40.889,131.722 41.000,132.000 41.000 C 132.281 41.000,132.337 41.118,132.354 41.750 C 132.385 42.854,132.399 42.917,132.611 42.917 C 132.943 42.917,132.976 43.047,133.010 44.502 C 133.042 45.865,133.208 46.431,133.519 46.238 C 133.602 46.187,133.667 47.057,133.667 48.221 C 133.667 50.154,133.644 50.300,133.333 50.382 C 133.038 50.459,133.000 50.609,133.000 51.697 C 133.000 52.720,132.944 52.974,132.667 53.211 C 132.415 53.427,132.333 53.703,132.333 54.342 C 132.333 54.806,132.267 55.145,132.186 55.095 C 132.104 55.045,131.961 55.097,131.866 55.210 C 131.676 55.439,131.667 55.482,131.667 56.093 C 131.667 56.328,131.600 56.479,131.519 56.428 C 131.438 56.378,131.294 56.430,131.200 56.544 C 131.016 56.764,131.000 56.828,131.000 57.314 C 131.000 57.488,130.851 57.667,130.667 57.715 C 130.383 57.789,130.333 57.942,130.333 58.734 L 130.333 59.667 132.333 59.667 C 134.222 59.667,134.333 59.685,134.333 60.000 C 134.333 60.278,134.444 60.333,135.000 60.333 C 135.488 60.333,135.667 60.402,135.667 60.589 C 135.667 60.729,135.798 60.891,135.958 60.949 C 136.119 61.006,136.384 61.191,136.548 61.360 C 136.712 61.529,137.031 61.667,137.256 61.667 C 137.581 61.667,137.667 61.752,137.667 62.077 C 137.667 62.302,137.805 62.621,137.973 62.785 C 138.142 62.949,138.327 63.215,138.385 63.375 C 138.442 63.535,138.604 63.667,138.745 63.667 C 138.889 63.667,139.000 63.812,139.000 64.000 C 139.000 64.283,139.111 64.333,139.738 64.333 C 140.575 64.333,141.000 64.021,141.000 63.405 C 141.000 63.111,141.092 63.000,141.333 63.000 C 141.556 63.000,141.667 62.889,141.667 62.667 C 141.667 62.479,141.778 62.333,141.921 62.333 C 142.061 62.333,142.243 62.154,142.327 61.934 C 142.410 61.715,142.562 61.507,142.665 61.473 C 142.848 61.412,142.962 61.049,142.987 60.448 C 142.994 60.283,143.067 60.188,143.148 60.238 C 143.285 60.323,143.800 59.852,143.708 59.724 C 143.592 59.563,143.687 58.826,143.814 58.905 C 144.064 59.059,144.272 58.620,144.319 57.838 C 144.350 57.330,144.465 57.022,144.682 56.870 C 144.920 56.704,145.000 56.446,145.000 55.843 C 145.000 55.179,145.058 55.024,145.333 54.952 C 145.637 54.872,145.667 54.724,145.667 53.303 C 145.667 51.934,145.709 51.705,146.009 51.448 C 146.462 51.060,146.453 45.083,146.000 45.083 C 145.798 45.083,145.734 44.728,145.667 43.215 C 145.600 41.726,145.526 41.303,145.303 41.132 C 145.127 40.997,145.007 40.636,144.982 40.167 C 144.939 39.383,144.733 38.940,144.481 39.095 C 144.400 39.145,144.333 38.875,144.333 38.494 C 144.333 37.942,144.266 37.784,144.000 37.715 C 143.766 37.654,143.667 37.488,143.667 37.157 C 143.667 36.881,143.534 36.593,143.347 36.461 C 143.168 36.337,142.997 35.982,142.961 35.660 C 142.920 35.301,142.805 35.083,142.656 35.083 C 142.524 35.083,142.393 34.915,142.363 34.708 C 142.329 34.467,142.195 34.333,141.988 34.333 C 141.778 34.333,141.667 34.218,141.667 34.000 C 141.667 33.492,141.652 33.433,141.467 33.210 C 141.373 33.097,141.229 33.045,141.148 33.095 C 141.067 33.145,140.991 33.107,140.979 33.010 C 140.968 32.913,140.949 32.740,140.938 32.625 C 140.926 32.510,140.842 32.415,140.750 32.412 C 140.533 32.407,138.927 30.801,138.921 30.583 C 138.919 30.492,138.823 30.407,138.708 30.396 C 138.594 30.384,138.421 30.366,138.323 30.354 C 138.226 30.343,138.190 30.264,138.243 30.178 C 138.391 29.938,138.005 29.729,137.333 29.688 C 137.122 29.674,137.000 29.549,137.000 29.345 C 137.000 29.138,136.866 29.004,136.625 28.970 C 136.419 28.941,136.250 28.804,136.250 28.667 C 136.250 28.416,136.188 28.393,135.417 28.354 C 135.118 28.339,135.000 28.239,135.000 28.000 C 135.000 27.722,134.889 27.667,134.333 27.667 C 133.784 27.667,133.667 27.610,133.667 27.343 C 133.667 27.081,133.531 27.009,132.958 26.968 C 132.463 26.932,132.250 26.842,132.250 26.667 C 132.250 26.397,132.207 26.386,131.103 26.354 C 130.522 26.338,130.354 26.265,130.285 26.000 C 130.211 25.717,130.058 25.667,129.274 25.667 C 128.567 25.667,128.312 25.598,128.187 25.375 C 128.052 25.132,127.706 25.069,126.137 25.000 C 124.608 24.932,124.250 24.869,124.250 24.667 C 124.250 24.222,109.632 24.206,109.218 24.650 M150.361 26.620 C 150.395 27.211,150.492 27.583,150.611 27.583 C 150.860 27.583,151.083 27.806,151.083 28.056 C 151.083 28.162,151.171 28.250,151.278 28.250 C 151.527 28.250,151.750 28.473,151.750 28.722 C 151.750 28.829,151.862 28.917,152.000 28.917 C 152.137 28.917,152.274 29.085,152.303 29.292 C 152.337 29.533,152.471 29.667,152.678 29.667 C 152.889 29.667,153.000 29.782,153.000 30.000 C 153.000 30.222,153.111 30.333,153.333 30.333 C 153.556 30.333,153.667 30.444,153.667 30.667 C 153.667 30.889,153.778 31.000,154.000 31.000 C 154.222 31.000,154.333 31.111,154.333 31.333 C 154.333 31.556,154.444 31.667,154.667 31.667 C 154.889 31.667,155.000 31.778,155.000 32.000 C 155.000 32.222,155.111 32.333,155.333 32.333 C 155.556 32.333,155.667 32.444,155.667 32.667 C 155.667 32.889,155.778 33.000,156.000 33.000 C 156.241 33.000,156.333 33.111,156.333 33.401 C 156.333 33.673,156.671 34.138,157.375 34.835 C 157.948 35.402,158.417 35.953,158.417 36.058 C 158.417 36.164,158.504 36.250,158.611 36.250 C 158.860 36.250,159.083 36.473,159.083 36.722 C 159.083 36.829,159.171 36.917,159.278 36.917 C 159.527 36.917,159.750 37.140,159.750 37.389 C 159.750 37.496,159.862 37.583,160.000 37.583 C 160.137 37.583,160.274 37.752,160.303 37.958 C 160.337 38.199,160.471 38.333,160.678 38.333 C 160.889 38.333,161.000 38.448,161.000 38.667 C 161.000 38.889,161.111 39.000,161.333 39.000 C 161.556 39.000,161.667 39.111,161.667 39.333 C 161.667 39.556,161.778 39.667,162.000 39.667 C 162.222 39.667,162.333 39.778,162.333 40.000 C 162.333 40.222,162.444 40.333,162.667 40.333 C 162.889 40.333,163.000 40.444,163.000 40.667 C 163.000 40.889,163.111 41.000,163.333 41.000 C 163.556 41.000,163.667 41.111,163.667 41.333 C 163.667 41.556,163.778 41.667,164.000 41.667 C 164.241 41.667,164.333 41.778,164.333 42.068 C 164.333 42.339,164.671 42.804,165.375 43.501 C 165.948 44.069,166.417 44.620,166.417 44.725 C 166.417 44.830,166.504 44.917,166.611 44.917 C 166.860 44.917,167.083 45.140,167.083 45.389 C 167.083 45.496,167.171 45.583,167.278 45.583 C 167.527 45.583,167.750 45.806,167.750 46.056 C 167.750 46.162,167.862 46.250,168.000 46.250 C 168.137 46.250,168.274 46.419,168.303 46.625 C 168.337 46.866,168.471 47.000,168.678 47.000 C 169.198 47.000,169.055 47.498,168.333 48.205 C 167.919 48.612,167.667 49.012,167.667 49.263 C 167.667 49.556,167.575 49.667,167.333 49.667 C 167.111 49.667,167.000 49.778,167.000 50.000 C 167.000 50.222,166.889 50.333,166.667 50.333 C 166.444 50.333,166.333 50.444,166.333 50.667 C 166.333 50.889,166.222 51.000,166.000 51.000 C 165.778 51.000,165.667 51.111,165.667 51.333 C 165.667 51.556,165.556 51.667,165.333 51.667 C 165.111 51.667,165.000 51.778,165.000 52.000 C 165.000 52.218,164.889 52.333,164.678 52.333 C 164.471 52.333,164.337 52.467,164.303 52.708 C 164.274 52.915,164.137 53.083,164.000 53.083 C 163.862 53.083,163.750 53.171,163.750 53.278 C 163.750 53.527,163.527 53.750,163.278 53.750 C 163.171 53.750,163.074 53.844,163.063 53.958 C 163.051 54.073,163.032 54.246,163.021 54.343 C 163.009 54.440,162.933 54.479,162.852 54.428 C 162.669 54.315,162.295 54.740,162.446 54.890 C 162.506 54.951,162.476 55.000,162.378 55.000 C 162.031 55.000,161.000 56.197,161.000 56.600 C 161.000 56.889,160.907 57.000,160.667 57.000 C 160.444 57.000,160.333 57.111,160.333 57.333 C 160.333 57.556,160.222 57.667,160.000 57.667 C 159.778 57.667,159.667 57.778,159.667 58.000 C 159.667 58.222,159.556 58.333,159.333 58.333 C 159.111 58.333,159.000 58.444,159.000 58.667 C 159.000 58.889,158.889 59.000,158.667 59.000 C 158.483 59.000,158.333 59.109,158.333 59.242 C 158.333 59.516,157.506 60.410,157.250 60.414 C 157.158 60.416,157.083 60.504,157.083 60.611 C 157.083 60.860,156.860 61.083,156.611 61.083 C 156.504 61.083,156.417 61.170,156.417 61.275 C 156.417 61.380,155.948 61.931,155.375 62.499 C 154.671 63.196,154.333 63.661,154.333 63.932 C 154.333 64.222,154.241 64.333,154.000 64.333 C 153.778 64.333,153.667 64.444,153.667 64.667 C 153.667 64.889,153.556 65.000,153.333 65.000 C 153.111 65.000,153.000 65.111,153.000 65.333 C 153.000 65.556,152.889 65.667,152.667 65.667 C 152.444 65.667,152.333 65.778,152.333 66.000 C 152.333 66.218,152.222 66.333,152.012 66.333 C 151.805 66.333,151.671 66.467,151.637 66.708 C 151.607 66.915,151.471 67.083,151.333 67.083 C 151.196 67.083,151.083 67.171,151.083 67.278 C 151.083 67.527,150.860 67.750,150.611 67.750 C 150.504 67.750,150.417 67.838,150.417 67.944 C 150.417 68.194,150.194 68.417,149.944 68.417 C 149.837 68.417,149.750 68.506,149.750 68.615 C 149.750 68.725,149.581 68.971,149.375 69.164 C 148.931 69.578,148.913 69.722,149.262 70.071 C 149.721 70.531,163.667 70.462,163.667 70.000 C 163.667 69.782,163.778 69.667,163.988 69.667 C 164.195 69.667,164.329 69.533,164.363 69.292 C 164.393 69.085,164.529 68.917,164.667 68.917 C 164.804 68.917,164.917 68.830,164.917 68.723 C 164.917 68.617,165.235 68.217,165.625 67.835 C 166.072 67.397,166.333 66.992,166.333 66.737 C 166.333 66.444,166.425 66.333,166.667 66.333 C 166.889 66.333,167.000 66.222,167.000 66.000 C 167.000 65.782,167.111 65.667,167.322 65.667 C 167.529 65.667,167.663 65.533,167.697 65.292 C 167.726 65.085,167.862 64.917,168.000 64.917 C 168.137 64.917,168.250 64.827,168.250 64.718 C 168.250 64.609,168.419 64.362,168.625 64.170 C 168.831 63.978,169.000 63.636,169.000 63.410 C 169.000 63.111,169.090 63.000,169.333 63.000 C 169.556 63.000,169.667 62.889,169.667 62.667 C 169.667 62.444,169.778 62.333,170.000 62.333 C 170.183 62.333,170.333 62.224,170.333 62.091 C 170.333 61.818,171.161 60.923,171.417 60.919 C 171.508 60.918,171.583 60.827,171.583 60.718 C 171.583 60.609,171.752 60.362,171.958 60.170 C 172.165 59.978,172.333 59.636,172.333 59.410 C 172.333 59.111,172.424 59.000,172.667 59.000 C 172.889 59.000,173.000 58.889,173.000 58.667 C 173.000 58.444,173.111 58.333,173.333 58.333 C 173.517 58.333,173.667 58.224,173.667 58.091 C 173.667 57.818,174.494 56.923,174.750 56.919 C 174.842 56.918,174.917 56.827,174.917 56.718 C 174.917 56.609,175.085 56.362,175.292 56.170 C 175.498 55.978,175.667 55.636,175.667 55.410 C 175.667 55.111,175.757 55.000,176.000 55.000 C 176.222 55.000,176.333 54.889,176.333 54.667 C 176.333 54.444,176.444 54.333,176.667 54.333 C 176.910 54.333,177.000 54.444,177.000 54.744 C 177.000 54.969,177.169 55.311,177.375 55.503 C 177.581 55.695,177.750 55.942,177.750 56.051 C 177.750 56.161,177.825 56.251,177.917 56.253 C 178.173 56.256,179.000 57.151,179.000 57.424 C 179.000 57.558,179.150 57.667,179.333 57.667 C 179.556 57.667,179.667 57.778,179.667 58.000 C 179.667 58.222,179.778 58.333,180.000 58.333 C 180.243 58.333,180.333 58.444,180.333 58.744 C 180.333 58.969,180.502 59.311,180.708 59.503 C 180.915 59.695,181.083 59.942,181.083 60.051 C 181.083 60.161,181.196 60.250,181.333 60.250 C 181.471 60.250,181.607 60.419,181.637 60.625 C 181.671 60.866,181.805 61.000,182.012 61.000 C 182.222 61.000,182.333 61.115,182.333 61.333 C 182.333 61.556,182.444 61.667,182.667 61.667 C 182.908 61.667,183.000 61.778,183.000 62.071 C 183.000 62.480,183.385 63.000,183.688 63.000 C 183.779 63.000,183.812 63.067,183.762 63.148 C 183.648 63.331,184.073 63.705,184.224 63.554 C 184.284 63.494,184.343 63.532,184.354 63.639 C 184.366 63.746,184.384 63.927,184.396 64.042 C 184.407 64.156,184.529 64.250,184.667 64.250 C 184.804 64.250,184.941 64.419,184.970 64.625 C 185.004 64.866,185.138 65.000,185.345 65.000 C 185.556 65.000,185.667 65.115,185.667 65.333 C 185.667 65.549,185.778 65.667,185.981 65.667 C 186.158 65.667,186.334 65.817,186.385 66.011 C 186.556 66.667,187.570 66.388,187.639 65.667 C 187.669 65.346,187.838 64.949,188.014 64.785 C 188.189 64.621,188.333 64.319,188.333 64.114 C 188.333 63.909,188.483 63.612,188.667 63.455 C 188.850 63.298,189.000 62.982,189.000 62.752 C 189.000 62.444,189.089 62.333,189.333 62.333 C 189.556 62.333,189.667 62.222,189.667 62.000 C 189.667 61.778,189.778 61.667,190.000 61.667 C 190.222 61.667,190.333 61.556,190.333 61.333 C 190.333 61.118,190.451 60.993,190.667 60.979 C 191.338 60.937,191.725 60.729,191.576 60.488 C 191.523 60.403,191.743 60.333,192.064 60.333 C 192.453 60.333,192.723 60.225,192.875 60.009 C 193.036 59.779,193.330 59.674,193.890 59.645 C 194.323 59.622,194.733 59.524,194.800 59.427 C 195.056 59.056,194.800 58.231,194.488 58.424 C 194.403 58.477,194.333 58.328,194.333 58.093 C 194.333 57.778,194.246 57.667,194.000 57.667 C 193.778 57.667,193.667 57.556,193.667 57.333 C 193.667 57.111,193.556 57.000,193.333 57.000 C 193.092 57.000,193.000 56.889,193.000 56.596 C 193.000 56.341,192.739 55.937,192.292 55.498 C 191.902 55.116,191.583 54.717,191.583 54.610 C 191.583 54.504,191.496 54.417,191.389 54.417 C 191.140 54.417,190.917 54.194,190.917 53.944 C 190.917 53.837,190.842 53.749,190.750 53.747 C 190.494 53.744,189.667 52.849,189.667 52.576 C 189.667 52.442,189.517 52.333,189.333 52.333 C 189.111 52.333,189.000 52.222,189.000 52.000 C 189.000 51.778,188.889 51.667,188.667 51.667 C 188.444 51.667,188.333 51.556,188.333 51.333 C 188.333 51.111,188.222 51.000,188.000 51.000 C 187.759 51.000,187.667 50.889,187.667 50.600 C 187.667 50.197,186.636 49.000,186.289 49.000 C 186.191 49.000,186.160 48.951,186.221 48.890 C 186.371 48.740,185.998 48.315,185.814 48.428 C 185.733 48.479,185.657 48.440,185.646 48.343 C 185.634 48.246,185.616 48.073,185.604 47.958 C 185.593 47.844,185.471 47.750,185.333 47.750 C 185.182 47.750,185.062 47.562,185.029 47.274 C 184.997 46.999,185.042 46.840,185.135 46.897 C 185.327 47.016,185.711 46.600,185.554 46.443 C 185.494 46.383,185.524 46.333,185.622 46.333 C 185.969 46.333,187.000 45.136,187.000 44.733 C 187.000 44.444,187.093 44.333,187.333 44.333 C 187.556 44.333,187.667 44.222,187.667 44.000 C 187.667 43.778,187.778 43.667,188.000 43.667 C 188.222 43.667,188.333 43.556,188.333 43.333 C 188.333 43.111,188.444 43.000,188.667 43.000 C 188.889 43.000,189.000 42.889,189.000 42.667 C 189.000 42.444,189.111 42.333,189.333 42.333 C 189.556 42.333,189.667 42.222,189.667 42.000 C 189.667 41.778,189.778 41.667,190.000 41.667 C 190.222 41.667,190.333 41.556,190.333 41.333 C 190.333 41.115,190.444 41.000,190.655 41.000 C 190.862 41.000,190.996 40.866,191.030 40.625 C 191.059 40.419,191.196 40.250,191.333 40.250 C 191.471 40.250,191.583 40.163,191.583 40.056 C 191.583 39.806,191.806 39.583,192.056 39.583 C 192.162 39.583,192.250 39.496,192.250 39.389 C 192.250 39.140,192.473 38.917,192.722 38.917 C 192.829 38.917,192.917 38.830,192.917 38.725 C 192.917 38.620,193.385 38.069,193.958 37.501 C 194.662 36.804,195.000 36.339,195.000 36.068 C 195.000 35.778,195.092 35.667,195.333 35.667 C 195.556 35.667,195.667 35.556,195.667 35.333 C 195.667 35.111,195.778 35.000,196.000 35.000 C 196.222 35.000,196.333 34.889,196.333 34.667 C 196.333 34.444,196.444 34.333,196.667 34.333 C 196.889 34.333,197.000 34.222,197.000 34.000 C 197.000 33.778,197.111 33.667,197.333 33.667 C 197.556 33.667,197.667 33.556,197.667 33.333 C 197.667 33.111,197.778 33.000,198.000 33.000 C 198.222 33.000,198.333 32.889,198.333 32.667 C 198.333 32.448,198.444 32.333,198.655 32.333 C 198.862 32.333,198.996 32.199,199.030 31.958 C 199.059 31.752,199.196 31.583,199.333 31.583 C 199.471 31.583,199.583 31.496,199.583 31.389 C 199.583 31.140,199.806 30.917,200.056 30.917 C 200.163 30.917,200.250 30.829,200.250 30.722 C 200.250 30.473,200.473 30.250,200.722 30.250 C 200.829 30.250,200.917 30.164,200.917 30.058 C 200.917 29.953,201.385 29.402,201.958 28.835 C 202.770 28.030,203.000 27.694,203.000 27.308 C 203.000 27.036,203.070 26.857,203.155 26.910 C 203.481 27.111,203.720 26.270,203.447 25.882 C 203.178 25.502,190.080 25.582,189.804 25.966 C 189.682 26.134,189.452 26.321,189.292 26.381 C 189.131 26.441,189.000 26.646,189.000 26.838 C 189.000 27.030,188.933 27.145,188.852 27.095 C 188.669 26.982,188.295 27.406,188.446 27.557 C 188.506 27.617,188.473 27.667,188.373 27.667 C 188.054 27.667,187.667 28.176,187.667 28.595 C 187.667 28.889,187.575 29.000,187.333 29.000 C 187.111 29.000,187.000 29.111,187.000 29.333 C 187.000 29.552,186.889 29.667,186.678 29.667 C 186.471 29.667,186.337 29.801,186.303 30.042 C 186.274 30.248,186.137 30.417,186.000 30.417 C 185.862 30.417,185.750 30.506,185.750 30.615 C 185.750 30.725,185.581 30.971,185.375 31.164 C 185.169 31.356,185.000 31.698,185.000 31.923 C 185.000 32.222,184.910 32.333,184.667 32.333 C 184.444 32.333,184.333 32.444,184.333 32.667 C 184.333 32.889,184.222 33.000,184.000 33.000 C 183.778 33.000,183.667 33.111,183.667 33.333 C 183.667 33.521,183.556 33.667,183.413 33.667 C 183.273 33.667,183.087 33.855,183.000 34.085 C 182.912 34.314,182.749 34.483,182.636 34.460 C 182.524 34.436,182.428 34.506,182.424 34.615 C 182.420 34.725,182.248 34.971,182.042 35.164 C 181.835 35.356,181.667 35.698,181.667 35.923 C 181.667 36.222,181.576 36.333,181.333 36.333 C 181.111 36.333,181.000 36.444,181.000 36.667 C 181.000 36.885,180.889 37.000,180.678 37.000 C 180.471 37.000,180.337 37.134,180.303 37.375 C 180.274 37.581,180.137 37.750,180.000 37.750 C 179.862 37.750,179.750 37.837,179.750 37.943 C 179.750 38.050,179.431 38.449,179.042 38.831 C 178.594 39.270,178.333 39.674,178.333 39.929 C 178.333 40.222,178.242 40.333,178.000 40.333 C 177.778 40.333,177.667 40.444,177.667 40.667 C 177.667 40.889,177.556 41.000,177.333 41.000 C 177.111 41.000,177.000 40.889,177.000 40.667 C 177.000 40.444,176.889 40.333,176.667 40.333 C 176.425 40.333,176.333 40.222,176.333 39.929 C 176.333 39.520,175.948 39.000,175.645 39.000 C 175.554 39.000,175.521 38.933,175.572 38.852 C 175.685 38.669,175.260 38.295,175.110 38.446 C 175.049 38.506,174.991 38.468,174.979 38.361 C 174.968 38.254,174.949 38.073,174.938 37.958 C 174.926 37.844,174.804 37.750,174.667 37.750 C 174.529 37.750,174.393 37.581,174.363 37.375 C 174.329 37.134,174.195 37.000,173.988 37.000 C 173.778 37.000,173.667 36.885,173.667 36.667 C 173.667 36.444,173.556 36.333,173.333 36.333 C 173.092 36.333,173.000 36.222,173.000 35.929 C 173.000 35.520,172.615 35.000,172.312 35.000 C 172.221 35.000,172.188 34.933,172.238 34.852 C 172.352 34.669,171.927 34.295,171.776 34.446 C 171.716 34.506,171.657 34.468,171.646 34.361 C 171.634 34.254,171.616 34.073,171.604 33.958 C 171.593 33.844,171.471 33.750,171.333 33.750 C 171.196 33.750,171.059 33.581,171.030 33.375 C 170.996 33.134,170.862 33.000,170.655 33.000 C 170.444 33.000,170.333 32.885,170.333 32.667 C 170.333 32.444,170.222 32.333,170.000 32.333 C 169.758 32.333,169.667 32.222,169.667 31.929 C 169.667 31.509,169.279 31.000,168.960 31.000 C 168.860 31.000,168.827 30.951,168.887 30.890 C 169.038 30.740,168.665 30.315,168.481 30.428 C 168.400 30.479,168.324 30.440,168.313 30.343 C 168.301 30.246,168.282 30.073,168.271 29.958 C 168.259 29.844,168.137 29.750,168.000 29.750 C 167.862 29.750,167.726 29.581,167.697 29.375 C 167.663 29.134,167.529 29.000,167.322 29.000 C 167.111 29.000,167.000 28.885,167.000 28.667 C 167.000 28.444,166.889 28.333,166.667 28.333 C 166.425 28.333,166.333 28.222,166.333 27.929 C 166.333 27.509,165.946 27.000,165.627 27.000 C 165.527 27.000,165.494 26.951,165.554 26.890 C 165.705 26.740,165.331 26.315,165.148 26.428 C 165.067 26.479,164.991 26.440,164.979 26.343 C 164.968 26.246,164.949 26.073,164.938 25.958 C 164.921 25.796,163.306 25.740,157.611 25.704 L 150.306 25.657 150.361 26.620 M57.095 32.481 C 57.005 32.627,57.298 32.958,57.542 32.986 C 57.610 32.994,58.159 33.000,58.760 33.000 C 59.392 33.000,59.813 33.065,59.757 33.155 C 59.577 33.447,60.001 33.615,61.000 33.646 C 61.549 33.663,61.667 33.726,61.667 34.000 C 61.667 34.278,61.778 34.333,62.333 34.333 C 62.889 34.333,63.000 34.389,63.000 34.667 C 63.000 34.889,63.111 35.000,63.333 35.000 C 63.521 35.000,63.667 35.111,63.667 35.254 C 63.667 35.394,63.855 35.580,64.085 35.667 C 64.314 35.755,64.483 35.921,64.460 36.038 C 64.436 36.155,64.512 36.231,64.629 36.207 C 64.745 36.184,64.912 36.352,65.000 36.582 C 65.087 36.812,65.273 37.000,65.413 37.000 C 65.556 37.000,65.667 37.146,65.667 37.333 C 65.667 37.556,65.778 37.667,66.000 37.667 C 66.259 37.667,66.333 37.778,66.333 38.165 C 66.333 38.483,66.454 38.739,66.667 38.872 C 66.915 39.027,67.000 39.261,67.000 39.792 C 67.000 40.297,67.097 40.586,67.333 40.789 C 67.600 41.017,67.667 41.280,67.667 42.108 C 67.667 42.827,67.747 43.223,67.929 43.405 C 68.167 43.643,66.772 43.667,52.586 43.667 L 36.981 43.667 37.032 42.958 C 37.068 42.463,37.158 42.250,37.333 42.250 C 37.603 42.250,37.614 42.207,37.646 41.103 C 37.662 40.522,37.735 40.354,38.000 40.285 C 38.240 40.222,38.333 40.058,38.333 39.696 C 38.333 39.337,38.523 38.996,39.000 38.500 C 39.403 38.081,39.667 37.647,39.667 37.403 C 39.667 37.111,39.759 37.000,40.000 37.000 C 40.222 37.000,40.333 36.889,40.333 36.667 C 40.333 36.444,40.444 36.333,40.667 36.333 C 40.889 36.333,41.000 36.222,41.000 36.000 C 41.000 35.778,41.111 35.667,41.333 35.667 C 41.556 35.667,41.667 35.556,41.667 35.333 C 41.667 35.094,41.785 34.994,42.083 34.979 C 42.853 34.941,42.917 34.918,42.917 34.679 C 42.917 34.548,43.123 34.385,43.375 34.318 C 43.627 34.251,43.833 34.236,43.833 34.285 C 43.833 34.334,43.945 34.281,44.081 34.168 C 44.218 34.055,44.289 33.896,44.238 33.814 C 44.188 33.733,44.458 33.667,44.839 33.667 C 45.391 33.667,45.549 33.599,45.618 33.333 C 45.695 33.041,47.397 32.805,47.724 33.042 C 47.852 33.133,48.323 32.619,48.238 32.481 C 48.186 32.397,50.081 32.333,52.667 32.333 C 55.252 32.333,57.147 32.397,57.095 32.481 M289.146 41.099 C 289.134 41.136,289.106 41.242,289.083 41.333 C 289.060 41.425,289.032 42.735,289.021 44.244 L 289.000 46.988 287.375 47.036 L 285.750 47.083 285.701 48.375 L 285.653 49.667 287.326 49.667 L 289.000 49.667 289.021 57.667 C 289.032 62.067,289.052 65.723,289.065 65.792 C 289.119 66.081,289.368 66.332,289.512 66.243 C 289.598 66.190,289.676 66.485,289.688 66.907 C 289.718 68.002,289.875 68.430,290.178 68.243 C 290.264 68.190,290.333 68.339,290.333 68.573 C 290.333 68.889,290.420 69.000,290.667 69.000 C 290.889 69.000,291.000 69.111,291.000 69.333 C 291.000 69.580,291.111 69.667,291.427 69.667 C 291.661 69.667,291.812 69.733,291.762 69.814 C 291.585 70.100,292.094 70.285,293.166 70.322 C 294.295 70.362,294.417 70.401,294.417 70.722 C 294.417 71.126,298.176 71.084,298.282 70.678 C 298.364 70.366,298.498 70.333,299.686 70.333 L 301.000 70.333 301.000 68.987 L 301.000 67.641 299.708 67.695 C 298.696 67.738,298.417 67.804,298.417 68.000 C 298.417 68.431,297.066 68.439,296.954 68.009 C 296.885 67.743,296.729 67.667,296.260 67.667 C 295.884 67.667,295.621 67.575,295.563 67.423 C 295.511 67.289,295.320 67.132,295.139 67.074 C 294.957 67.017,294.851 66.927,294.903 66.875 C 295.043 66.735,294.653 66.322,294.481 66.428 C 294.396 66.481,294.333 62.951,294.333 58.093 L 294.333 49.667 297.680 49.667 L 301.026 49.667 300.971 48.375 C 300.934 47.497,300.850 47.077,300.708 47.063 C 300.594 47.051,299.112 47.032,297.417 47.021 L 294.333 47.000 294.333 43.993 L 294.333 40.987 291.750 41.009 C 290.329 41.021,289.157 41.061,289.146 41.099 M211.106 47.135 C 210.790 47.667,211.152 49.799,211.519 49.572 C 211.600 49.521,211.667 49.792,211.667 50.172 C 211.667 50.724,211.734 50.882,212.000 50.952 C 212.261 51.020,212.333 51.179,212.333 51.686 C 212.333 52.222,212.391 52.333,212.667 52.333 C 212.950 52.333,213.000 52.444,213.000 53.077 C 213.000 53.597,213.097 53.910,213.322 54.121 C 213.500 54.286,213.670 54.607,213.702 54.835 C 213.776 55.374,213.983 55.697,214.178 55.576 C 214.310 55.495,214.412 56.224,214.292 56.391 C 214.200 56.518,214.715 56.990,214.852 56.905 C 214.933 56.855,215.000 57.125,215.000 57.506 C 215.000 58.058,215.068 58.216,215.333 58.285 C 215.594 58.353,215.667 58.512,215.667 59.019 C 215.667 59.556,215.724 59.667,216.000 59.667 C 216.284 59.667,216.333 59.778,216.333 60.410 C 216.333 60.931,216.430 61.244,216.656 61.454 C 216.833 61.619,217.004 61.941,217.035 62.169 C 217.109 62.708,217.316 63.030,217.512 62.910 C 217.597 62.857,217.667 63.006,217.667 63.240 C 217.667 63.851,217.676 63.894,217.866 64.123 C 217.961 64.237,218.104 64.289,218.186 64.238 C 218.267 64.188,218.333 64.458,218.333 64.839 C 218.333 65.391,218.401 65.549,218.667 65.618 C 218.928 65.687,219.000 65.846,219.000 66.353 C 219.000 66.889,219.057 67.000,219.333 67.000 C 219.617 67.000,219.667 67.111,219.667 67.744 C 219.667 68.264,219.763 68.577,219.989 68.787 C 220.166 68.952,220.337 69.274,220.368 69.502 C 220.475 70.281,220.542 70.301,223.167 70.324 L 225.667 70.347 225.667 69.693 C 225.667 69.179,225.738 69.020,226.000 68.952 C 226.266 68.882,226.333 68.724,226.333 68.172 C 226.333 67.788,226.402 67.523,226.488 67.576 C 226.684 67.697,226.891 67.374,226.965 66.835 C 226.996 66.607,227.167 66.286,227.344 66.121 C 227.570 65.910,227.667 65.597,227.667 65.077 C 227.667 64.444,227.716 64.333,228.000 64.333 C 228.276 64.333,228.333 64.222,228.333 63.686 C 228.333 63.179,228.406 63.020,228.667 62.952 C 228.932 62.882,229.000 62.724,229.000 62.172 C 229.000 61.788,229.069 61.523,229.155 61.576 C 229.350 61.697,229.558 61.374,229.632 60.835 C 229.663 60.607,229.834 60.286,230.011 60.121 C 230.237 59.910,230.333 59.597,230.333 59.077 C 230.333 58.444,230.383 58.333,230.667 58.333 C 230.943 58.333,231.000 58.222,231.000 57.686 C 231.000 57.179,231.072 57.020,231.333 56.952 C 231.599 56.882,231.667 56.724,231.667 56.172 C 231.667 55.788,231.736 55.523,231.822 55.576 C 232.017 55.697,232.224 55.374,232.298 54.835 C 232.330 54.607,232.500 54.286,232.678 54.121 C 232.903 53.910,233.000 53.597,233.000 53.077 C 233.000 52.452,233.052 52.333,233.324 52.333 C 233.585 52.333,233.657 52.198,233.699 51.625 C 233.735 51.129,233.825 50.917,234.000 50.917 C 234.257 50.917,234.277 50.858,234.313 49.990 C 234.324 49.710,234.400 49.521,234.481 49.572 C 234.787 49.761,234.966 49.214,234.942 48.167 L 234.917 47.083 233.583 47.038 C 232.082 46.986,231.858 47.074,231.734 47.761 C 231.686 48.027,231.501 48.380,231.323 48.545 C 231.099 48.754,231.000 49.069,231.000 49.570 C 231.000 50.154,230.935 50.311,230.667 50.382 C 230.401 50.451,230.333 50.609,230.333 51.161 C 230.333 51.546,230.264 51.810,230.178 51.757 C 229.982 51.636,229.774 51.962,229.705 52.500 C 229.676 52.729,229.537 53.004,229.396 53.111 C 229.119 53.323,229.032 53.626,229.013 54.458 C 229.003 54.885,228.929 55.000,228.667 55.000 C 228.391 55.000,228.333 55.111,228.333 55.647 C 228.333 56.154,228.261 56.313,228.000 56.382 C 227.734 56.451,227.667 56.609,227.667 57.161 C 227.667 57.546,227.598 57.810,227.512 57.757 C 227.316 57.636,227.109 57.959,227.035 58.498 C 227.004 58.726,226.833 59.048,226.656 59.213 C 226.435 59.418,226.333 59.736,226.333 60.216 C 226.333 60.739,226.248 60.973,226.000 61.128 C 225.768 61.273,225.667 61.517,225.667 61.928 C 225.667 62.253,225.597 62.477,225.512 62.424 C 225.315 62.302,225.107 62.628,225.038 63.167 C 225.009 63.396,224.870 63.671,224.730 63.778 C 224.508 63.947,224.394 64.226,224.346 64.715 C 224.318 65.002,223.685 64.219,223.632 63.831 C 223.558 63.292,223.350 62.970,223.155 63.090 C 223.070 63.143,222.991 62.957,222.979 62.677 C 222.944 61.809,222.924 61.750,222.667 61.750 C 222.506 61.750,222.398 61.555,222.364 61.203 C 222.333 60.885,222.176 60.571,221.989 60.454 C 221.763 60.313,221.667 60.066,221.667 59.627 C 221.667 59.111,221.608 59.000,221.333 59.000 C 221.071 59.000,220.997 58.885,220.987 58.458 C 220.968 57.626,220.881 57.323,220.604 57.111 C 220.463 57.004,220.324 56.729,220.295 56.500 C 220.226 55.962,220.018 55.636,219.822 55.757 C 219.736 55.810,219.667 55.546,219.667 55.161 C 219.667 54.609,219.599 54.451,219.333 54.382 C 219.072 54.313,219.000 54.154,219.000 53.647 C 219.000 53.111,218.943 53.000,218.667 53.000 C 218.404 53.000,218.331 52.885,218.321 52.458 C 218.301 51.626,218.215 51.323,217.937 51.111 C 217.797 51.004,217.658 50.729,217.628 50.500 C 217.559 49.962,217.352 49.636,217.155 49.757 C 217.069 49.810,217.000 49.546,217.000 49.161 C 217.000 48.609,216.932 48.451,216.667 48.382 C 216.391 48.310,216.212 47.835,216.375 47.609 C 216.398 47.577,216.317 47.432,216.196 47.285 C 215.966 47.008,211.263 46.869,211.106 47.135 M241.850 47.229 C 241.751 47.349,241.719 47.497,241.779 47.557 C 241.840 47.617,241.239 47.667,240.444 47.667 L 239.000 47.667 239.000 49.012 L 239.000 50.358 240.625 50.304 C 241.934 50.260,242.250 50.201,242.250 50.000 C 242.250 49.789,242.693 49.743,245.054 49.704 C 246.711 49.677,247.820 49.721,247.764 49.810 C 247.607 50.065,248.043 50.272,248.833 50.319 C 249.312 50.347,249.691 50.478,249.881 50.682 C 250.045 50.857,250.364 51.000,250.590 51.000 C 250.889 51.000,251.000 51.090,251.000 51.333 C 251.000 51.556,251.111 51.667,251.333 51.667 C 251.630 51.667,251.669 51.785,251.688 52.750 C 251.716 54.240,251.718 54.250,252.000 54.250 C 252.190 54.250,252.262 54.499,252.300 55.292 L 252.349 56.333 247.409 56.333 C 242.609 56.333,242.466 56.343,242.382 56.667 C 242.307 56.953,242.145 57.003,241.231 57.021 C 239.822 57.048,239.743 57.064,239.793 57.304 C 239.842 57.535,239.643 57.629,238.917 57.717 C 238.625 57.753,238.417 57.876,238.417 58.014 C 238.417 58.144,238.248 58.274,238.042 58.303 C 237.801 58.337,237.667 58.471,237.667 58.678 C 237.667 58.889,237.552 59.000,237.333 59.000 C 237.125 59.000,237.000 59.111,237.000 59.296 C 237.000 59.459,236.850 59.721,236.667 59.878 C 236.430 60.081,236.333 60.370,236.333 60.878 C 236.333 61.386,236.237 61.675,236.000 61.878 C 235.718 62.120,235.667 62.370,235.667 63.514 C 235.667 64.724,235.701 64.874,236.000 64.952 C 236.289 65.027,236.333 65.179,236.333 66.096 C 236.333 66.978,236.396 67.212,236.708 67.503 C 236.915 67.695,237.083 67.942,237.083 68.051 C 237.083 68.161,237.171 68.250,237.278 68.250 C 237.527 68.250,237.750 68.473,237.750 68.722 C 237.750 68.829,237.839 68.917,237.949 68.917 C 238.058 68.917,238.305 69.085,238.497 69.292 C 238.710 69.521,239.042 69.667,239.350 69.667 C 239.627 69.667,239.812 69.733,239.762 69.814 C 239.585 70.100,240.094 70.285,241.166 70.322 C 242.295 70.362,242.417 70.401,242.417 70.722 C 242.417 70.862,243.280 70.927,245.490 70.952 C 248.444 70.987,249.157 70.888,248.905 70.481 C 248.855 70.400,249.306 70.324,249.907 70.313 C 251.353 70.285,251.784 70.158,251.576 69.822 C 251.523 69.736,251.672 69.667,251.907 69.667 C 252.222 69.667,252.333 69.754,252.333 70.000 C 252.333 70.317,252.444 70.333,254.670 70.333 L 257.008 70.333 256.962 61.042 C 256.922 52.914,256.885 51.750,256.667 51.750 C 256.492 51.750,256.401 51.537,256.365 51.042 C 256.324 50.469,256.252 50.333,255.990 50.333 C 255.759 50.333,255.667 50.218,255.667 49.929 C 255.667 49.411,255.256 49.000,254.738 49.000 C 254.444 49.000,254.333 48.908,254.333 48.667 C 254.333 48.458,254.222 48.333,254.037 48.333 C 253.874 48.333,253.612 48.183,253.455 48.000 C 253.220 47.725,252.964 47.667,251.992 47.667 C 251.344 47.667,250.855 47.600,250.905 47.519 C 251.237 46.982,242.293 46.696,241.850 47.229 M261.268 47.256 C 261.023 47.501,261.002 48.600,261.041 58.888 L 261.083 70.250 263.708 70.296 L 266.333 70.342 266.333 60.671 L 266.333 51.000 266.744 51.000 C 266.969 51.000,267.289 50.855,267.455 50.677 C 267.712 50.401,268.012 50.349,269.503 50.324 C 271.220 50.295,271.767 50.148,271.557 49.773 C 271.499 49.669,271.615 49.752,271.815 49.958 C 272.136 50.289,272.347 50.333,273.582 50.333 C 274.679 50.333,275.015 50.390,275.129 50.594 C 275.260 50.828,275.564 50.951,276.106 50.987 C 276.209 50.994,276.334 51.150,276.382 51.333 C 276.430 51.517,276.588 51.667,276.734 51.667 C 276.889 51.667,277.000 51.806,277.000 52.000 C 277.000 52.222,277.111 52.333,277.333 52.333 C 277.641 52.333,277.667 52.444,277.667 53.752 C 277.667 54.964,277.715 55.211,278.000 55.455 C 278.324 55.733,278.333 55.947,278.333 63.037 L 278.333 70.333 280.667 70.333 L 283.000 70.333 283.000 61.256 C 283.000 52.497,282.989 52.169,282.678 51.879 C 282.500 51.714,282.330 51.393,282.298 51.165 C 282.224 50.626,282.017 50.303,281.822 50.424 C 281.736 50.477,281.667 50.328,281.667 50.093 C 281.667 49.778,281.580 49.667,281.333 49.667 C 281.111 49.667,281.000 49.556,281.000 49.333 C 281.000 49.126,280.889 49.000,280.707 49.000 C 280.545 49.000,280.320 48.850,280.205 48.667 C 280.073 48.454,279.817 48.333,279.499 48.333 C 279.111 48.333,279.000 48.259,279.000 48.000 C 279.000 47.704,278.889 47.667,278.019 47.667 C 277.179 47.667,277.026 47.619,276.952 47.333 C 276.868 47.013,276.724 47.000,273.333 47.000 C 269.942 47.000,269.799 47.013,269.715 47.333 C 269.640 47.620,269.478 47.670,268.564 47.688 C 267.096 47.716,267.083 47.719,267.083 48.000 C 267.083 48.137,266.915 48.274,266.708 48.303 C 266.423 48.344,266.333 48.274,266.333 48.012 C 266.333 47.072,266.241 47.036,263.762 47.010 C 261.912 46.990,261.492 47.031,261.268 47.256 M308.383 47.328 C 308.307 47.620,308.126 47.660,306.690 47.703 L 305.083 47.750 305.083 49.000 L 305.083 50.250 306.788 50.297 C 308.330 50.340,308.521 50.312,308.784 50.006 C 309.228 49.487,314.246 49.482,314.382 50.000 C 314.456 50.283,314.609 50.333,315.401 50.333 C 316.125 50.333,316.333 50.390,316.333 50.587 C 316.333 50.727,316.521 50.913,316.751 51.000 C 316.981 51.088,317.150 51.251,317.126 51.364 C 317.103 51.476,317.193 51.572,317.327 51.576 C 317.467 51.580,317.619 51.824,317.686 52.151 C 317.750 52.464,317.922 52.786,318.068 52.868 C 318.283 52.988,318.333 53.331,318.333 54.675 L 318.333 56.333 313.667 56.333 C 311.100 56.333,308.974 56.315,308.942 56.292 C 308.815 56.200,308.343 56.715,308.428 56.852 C 308.479 56.933,307.990 57.000,307.342 57.000 C 306.370 57.000,306.113 57.058,305.878 57.333 C 305.721 57.517,305.459 57.667,305.296 57.667 C 305.111 57.667,305.000 57.792,305.000 58.000 C 305.000 58.241,304.889 58.333,304.600 58.333 C 304.095 58.333,303.000 59.403,303.000 59.896 C 303.000 60.096,302.850 60.388,302.667 60.545 C 302.360 60.807,302.333 61.036,302.333 63.414 C 302.333 65.817,302.357 66.012,302.667 66.205 C 302.904 66.354,303.000 66.594,303.000 67.040 C 303.000 67.556,303.059 67.667,303.333 67.667 C 303.575 67.667,303.667 67.778,303.667 68.071 C 303.667 68.589,304.077 69.000,304.595 69.000 C 304.889 69.000,305.000 69.092,305.000 69.333 C 305.000 69.608,305.111 69.667,305.627 69.667 C 306.073 69.667,306.313 69.763,306.461 70.000 C 306.622 70.258,306.850 70.333,307.464 70.333 C 308.053 70.333,308.333 70.420,308.545 70.667 C 308.811 70.977,309.036 71.000,311.847 71.000 C 314.724 71.000,314.869 70.985,314.952 70.667 C 315.028 70.374,315.179 70.333,316.185 70.333 C 317.150 70.333,317.363 70.281,317.539 70.000 C 317.653 69.817,317.879 69.667,318.040 69.667 C 318.222 69.667,318.333 69.793,318.333 70.000 C 318.333 70.317,318.444 70.333,320.667 70.333 L 323.000 70.333 323.000 60.667 C 323.000 51.111,322.996 51.000,322.667 51.000 C 322.395 51.000,322.333 50.889,322.333 50.401 C 322.333 49.942,322.255 49.782,322.000 49.715 C 321.816 49.667,321.667 49.488,321.667 49.314 C 321.667 49.088,321.547 49.000,321.240 49.000 C 321.006 49.000,320.855 48.933,320.905 48.852 C 320.955 48.771,320.885 48.612,320.748 48.498 C 320.612 48.385,320.500 48.333,320.500 48.382 C 320.500 48.431,320.294 48.416,320.042 48.349 C 319.790 48.281,319.583 48.119,319.583 47.988 C 319.583 47.720,319.566 47.716,318.103 47.688 C 317.189 47.670,317.027 47.620,316.952 47.333 C 316.817 46.817,308.518 46.811,308.383 47.328 M335.146 47.095 C 335.134 47.134,335.116 47.260,335.104 47.375 C 335.091 47.505,334.755 47.602,334.204 47.634 C 333.549 47.671,333.273 47.767,333.122 48.009 C 332.980 48.237,332.734 48.333,332.293 48.333 C 331.778 48.333,331.667 48.392,331.667 48.667 C 331.667 48.910,331.556 49.000,331.256 49.000 C 331.031 49.000,330.689 49.169,330.497 49.375 C 330.305 49.581,330.058 49.750,329.949 49.750 C 329.839 49.750,329.741 49.844,329.729 49.958 C 329.718 50.073,329.699 50.246,329.688 50.343 C 329.676 50.440,329.597 50.477,329.512 50.424 C 329.271 50.275,329.063 50.662,329.021 51.333 C 329.007 51.549,328.882 51.667,328.667 51.667 C 328.447 51.667,328.333 51.778,328.333 51.992 C 328.333 52.170,328.212 52.385,328.064 52.467 C 327.903 52.558,327.766 52.911,327.721 53.351 C 327.623 54.322,327.550 54.511,327.296 54.460 C 327.128 54.426,327.075 55.350,327.046 58.821 C 327.009 63.089,327.084 63.840,327.519 63.572 C 327.600 63.521,327.667 63.860,327.667 64.325 C 327.667 64.964,327.748 65.240,328.000 65.455 C 328.183 65.612,328.333 65.874,328.333 66.037 C 328.333 66.222,328.458 66.333,328.667 66.333 C 328.907 66.333,329.000 66.444,329.000 66.733 C 329.000 67.262,330.072 68.333,330.600 68.333 C 330.889 68.333,331.000 68.426,331.000 68.667 C 331.000 68.913,331.111 69.000,331.427 69.000 C 331.661 69.000,331.810 69.070,331.757 69.155 C 331.636 69.350,331.959 69.558,332.498 69.632 C 332.726 69.663,333.048 69.834,333.213 70.011 C 333.463 70.280,333.743 70.333,334.904 70.333 C 336.165 70.333,336.303 70.365,336.384 70.675 C 336.469 71.000,336.584 71.015,338.861 70.992 C 341.101 70.969,341.793 70.839,341.572 70.481 C 341.521 70.399,342.150 70.333,342.978 70.333 C 344.118 70.333,344.539 70.271,344.738 70.071 C 344.976 69.833,345.000 69.933,345.000 71.165 C 345.000 71.958,344.936 72.480,344.845 72.424 C 344.541 72.236,344.384 72.664,344.354 73.760 C 344.343 74.181,344.264 74.477,344.178 74.424 C 343.938 74.275,343.729 74.662,343.688 75.333 C 343.673 75.573,343.549 75.667,343.248 75.667 C 343.018 75.667,342.702 75.817,342.545 76.000 C 342.388 76.183,342.091 76.333,341.886 76.333 C 341.681 76.333,341.378 76.479,341.212 76.656 C 340.955 76.932,340.655 76.984,339.164 77.009 C 337.506 77.037,336.891 77.189,337.095 77.519 C 337.145 77.600,336.794 77.667,336.315 77.667 C 335.836 77.667,335.494 77.617,335.554 77.557 C 335.948 77.163,335.188 77.028,332.480 77.008 L 329.643 76.987 329.679 78.119 C 329.727 79.680,329.640 79.631,332.460 79.658 C 334.655 79.679,334.937 79.715,335.209 80.007 C 335.542 80.365,338.667 80.514,338.667 80.172 C 338.667 80.083,338.772 80.051,338.900 80.100 C 339.028 80.149,339.190 80.098,339.259 79.986 C 339.346 79.844,339.313 79.823,339.151 79.918 C 339.012 79.998,338.973 79.992,339.056 79.902 C 339.236 79.705,339.151 79.712,341.668 79.688 C 343.616 79.669,343.866 79.633,344.122 79.333 C 344.303 79.122,344.614 79.000,344.969 79.000 C 345.391 79.000,345.553 78.917,345.618 78.667 C 345.667 78.482,345.846 78.333,346.019 78.333 C 346.506 78.333,346.569 78.317,346.790 78.134 C 346.903 78.039,346.955 77.896,346.905 77.814 C 346.855 77.733,346.893 77.657,346.990 77.646 C 347.087 77.634,347.260 77.616,347.375 77.604 C 347.490 77.593,347.583 77.496,347.583 77.389 C 347.583 77.140,347.806 76.917,348.056 76.917 C 348.252 76.917,348.275 76.842,348.313 76.083 C 348.327 75.789,348.428 75.667,348.657 75.667 C 348.919 75.667,348.991 75.531,349.032 74.958 C 349.068 74.463,349.158 74.250,349.333 74.250 C 349.554 74.250,349.583 72.630,349.583 60.667 L 349.583 47.083 347.333 47.083 C 345.656 47.083,345.078 47.136,345.063 47.292 C 345.051 47.406,345.032 47.561,345.021 47.636 C 344.978 47.915,343.093 47.641,342.780 47.310 C 342.499 47.012,335.230 46.808,335.146 47.095 M361.216 47.328 C 361.008 47.571,360.724 47.667,360.211 47.667 C 359.703 47.667,359.414 47.763,359.211 48.000 C 359.054 48.183,358.793 48.333,358.630 48.333 C 358.444 48.333,358.333 48.458,358.333 48.667 C 358.333 48.906,358.215 49.006,357.917 49.021 C 357.158 49.059,357.083 49.082,357.083 49.278 C 357.083 49.527,356.860 49.750,356.611 49.750 C 356.504 49.750,356.417 49.837,356.417 49.944 C 356.417 50.194,356.194 50.417,355.944 50.417 C 355.837 50.417,355.750 50.516,355.750 50.638 C 355.750 50.760,355.613 50.960,355.446 51.083 C 355.151 51.298,355.039 51.591,355.013 52.218 C 355.006 52.384,354.933 52.479,354.852 52.428 C 354.602 52.274,354.394 52.715,354.348 53.500 C 354.300 54.301,354.249 54.417,353.944 54.417 C 353.540 54.417,353.587 63.281,353.993 63.534 C 354.267 63.705,354.333 63.921,354.333 64.639 C 354.333 65.391,354.386 65.545,354.667 65.618 C 354.880 65.674,355.000 65.846,355.000 66.096 C 355.000 66.311,355.169 66.644,355.375 66.836 C 355.581 67.029,355.750 67.275,355.750 67.385 C 355.750 67.494,355.837 67.583,355.944 67.583 C 356.194 67.583,356.417 67.806,356.417 68.056 C 356.417 68.162,356.506 68.250,356.615 68.250 C 356.725 68.250,356.971 68.419,357.164 68.625 C 357.356 68.831,357.689 69.000,357.904 69.000 C 358.154 69.000,358.326 69.120,358.382 69.333 C 358.447 69.584,358.609 69.667,359.031 69.667 C 359.386 69.667,359.697 69.789,359.878 70.000 C 360.125 70.288,360.370 70.333,361.693 70.333 C 362.534 70.333,363.173 70.383,363.113 70.443 C 362.698 70.858,363.483 70.976,366.774 70.993 C 370.082 71.011,370.198 71.000,370.284 70.672 C 370.365 70.362,370.512 70.332,372.019 70.313 C 374.383 70.283,374.272 70.354,374.317 68.831 L 374.351 67.650 372.217 67.675 C 370.205 67.700,369.547 67.838,369.765 68.191 C 369.821 68.281,368.988 68.324,367.721 68.297 C 365.953 68.258,365.583 68.207,365.583 68.000 C 365.583 67.711,365.608 67.715,363.750 67.688 C 362.451 67.668,362.333 67.639,362.333 67.333 C 362.333 67.125,362.222 67.000,362.037 67.000 C 361.874 67.000,361.612 66.850,361.455 66.667 C 361.298 66.483,360.982 66.333,360.752 66.333 C 360.416 66.333,360.333 66.251,360.333 65.915 C 360.333 65.685,360.183 65.368,360.000 65.211 C 359.817 65.054,359.667 64.754,359.667 64.545 C 359.667 64.335,359.517 64.035,359.333 63.878 C 359.042 63.629,359.000 63.386,359.000 61.965 L 359.000 60.336 367.292 60.293 L 375.583 60.250 375.583 57.333 C 375.583 54.852,375.546 54.417,375.333 54.417 C 375.145 54.417,375.071 54.175,375.033 53.440 C 374.991 52.637,374.925 52.449,374.658 52.379 C 374.460 52.328,374.325 52.140,374.313 51.897 C 374.273 51.145,374.249 51.083,374.000 51.083 C 373.863 51.083,373.726 50.915,373.697 50.708 C 373.663 50.467,373.529 50.333,373.322 50.333 C 373.111 50.333,373.000 50.218,373.000 50.000 C 373.000 49.778,372.889 49.667,372.667 49.667 C 372.444 49.667,372.333 49.556,372.333 49.333 C 372.333 49.087,372.222 49.000,371.907 49.000 C 371.672 49.000,371.521 48.933,371.572 48.852 C 371.622 48.771,371.551 48.612,371.415 48.498 C 371.278 48.385,371.167 48.333,371.167 48.382 C 371.167 48.431,370.960 48.416,370.708 48.349 C 370.456 48.281,370.250 48.119,370.250 47.988 C 370.250 47.726,370.214 47.718,368.972 47.688 C 368.499 47.676,368.160 47.617,368.221 47.557 C 368.630 47.148,367.851 47.025,364.744 47.007 C 361.682 46.989,361.491 47.007,361.216 47.328 M341.750 50.000 C 341.750 50.195,342.024 50.262,342.992 50.306 C 343.987 50.351,344.309 50.434,344.614 50.723 L 344.994 51.083 344.997 58.951 L 345.000 66.818 344.576 67.242 L 344.152 67.667 340.283 67.667 C 336.594 67.667,336.404 67.651,336.205 67.333 C 336.073 67.121,335.817 67.000,335.499 67.000 C 335.111 67.000,335.000 66.926,335.000 66.667 C 335.000 66.444,334.889 66.333,334.667 66.333 C 334.444 66.333,334.333 66.222,334.333 66.000 C 334.333 65.778,334.222 65.667,334.000 65.667 C 333.757 65.667,333.667 65.556,333.667 65.256 C 333.667 65.031,333.523 64.712,333.347 64.548 C 333.171 64.384,332.998 63.987,332.961 63.667 C 332.920 63.302,332.805 63.083,332.656 63.083 C 332.216 63.083,332.223 55.211,332.664 54.800 C 332.904 54.577,333.000 54.275,333.000 53.744 C 333.000 53.120,333.052 53.000,333.322 53.000 C 333.529 53.000,333.663 52.866,333.697 52.625 C 333.726 52.419,333.862 52.250,334.000 52.250 C 334.137 52.250,334.250 52.162,334.250 52.056 C 334.250 51.806,334.473 51.583,334.722 51.583 C 334.829 51.583,334.917 51.496,334.917 51.389 C 334.917 51.111,335.030 51.031,335.563 50.935 C 335.823 50.888,336.121 50.738,336.226 50.602 C 336.342 50.452,336.775 50.334,337.333 50.302 C 337.910 50.268,338.258 50.171,338.271 50.041 C 338.282 49.927,338.301 49.793,338.313 49.744 C 338.369 49.504,341.750 49.756,341.750 50.000 M366.424 49.822 C 366.303 50.017,366.626 50.224,367.165 50.298 C 367.393 50.330,367.714 50.500,367.879 50.678 C 368.045 50.855,368.364 51.000,368.590 51.000 C 368.915 51.000,369.000 51.085,369.000 51.410 C 369.000 51.636,369.145 51.955,369.322 52.121 C 369.500 52.286,369.670 52.607,369.702 52.835 C 369.776 53.374,369.983 53.697,370.178 53.576 C 370.271 53.519,370.333 54.324,370.333 55.573 L 370.333 57.667 364.667 57.667 L 359.000 57.667 359.000 55.707 C 359.000 53.927,359.031 53.728,359.333 53.539 C 359.546 53.406,359.667 53.150,359.667 52.832 C 359.667 52.496,359.750 52.333,359.921 52.333 C 360.061 52.333,360.246 52.146,360.333 51.917 C 360.420 51.688,360.564 51.500,360.651 51.500 C 360.739 51.500,360.860 51.344,360.921 51.154 C 360.981 50.964,361.073 50.851,361.125 50.903 C 361.265 51.043,361.678 50.653,361.572 50.481 C 361.521 50.400,361.710 50.324,361.990 50.313 C 362.845 50.278,362.916 50.257,362.938 50.042 C 362.949 49.927,362.968 49.796,362.979 49.750 C 362.991 49.704,363.792 49.667,364.760 49.667 C 365.804 49.667,366.481 49.730,366.424 49.822 M252.333 62.909 L 252.333 66.818 251.922 67.230 C 251.553 67.599,251.347 67.647,249.963 67.696 C 248.724 67.739,248.417 67.800,248.417 68.000 C 248.417 68.206,248.111 68.250,246.667 68.250 C 245.232 68.250,244.917 68.206,244.917 68.003 C 244.917 67.825,244.685 67.741,244.083 67.704 C 243.045 67.638,242.819 67.564,242.873 67.304 C 242.897 67.191,242.829 67.095,242.722 67.091 C 242.473 67.081,242.252 66.860,242.242 66.611 C 242.238 66.504,242.142 66.436,242.029 66.460 C 241.798 66.509,241.704 66.310,241.616 65.583 C 241.581 65.292,241.457 65.083,241.319 65.083 C 240.893 65.083,240.898 62.536,241.326 62.138 C 241.571 61.910,241.667 61.611,241.667 61.077 C 241.667 60.444,241.716 60.333,242.000 60.333 C 242.222 60.333,242.333 60.222,242.333 60.000 C 242.333 59.741,242.444 59.667,242.832 59.667 C 243.150 59.667,243.406 59.546,243.539 59.333 C 243.738 59.014,243.927 59.000,248.040 59.000 L 252.333 59.000 252.333 62.909 M318.333 63.111 C 318.333 65.372,318.284 67.173,318.224 67.113 C 318.073 66.962,317.648 67.335,317.762 67.519 C 317.812 67.601,317.178 67.667,316.342 67.667 C 315.036 67.667,314.791 67.712,314.545 68.000 C 314.306 68.279,314.053 68.333,313.000 68.333 C 311.947 68.333,311.694 68.279,311.455 68.000 C 311.224 67.730,310.964 67.667,310.085 67.667 C 309.111 67.667,309.000 67.633,309.000 67.333 C 309.000 67.111,308.889 67.000,308.667 67.000 C 308.422 67.000,308.333 66.889,308.333 66.582 C 308.333 66.352,308.183 66.035,308.000 65.878 C 307.552 65.494,307.479 61.000,307.921 61.000 C 308.061 61.000,308.246 60.812,308.334 60.582 C 308.421 60.352,308.585 60.184,308.697 60.207 C 308.810 60.231,308.905 60.143,308.909 60.012 C 308.916 59.797,309.833 59.406,309.833 59.618 C 309.833 59.667,309.945 59.615,310.081 59.502 C 310.218 59.388,310.289 59.229,310.238 59.148 C 310.186 59.063,311.903 59.000,314.240 59.000 L 318.333 59.000 318.333 63.111 " stroke="none" fill="#245464" fill-rule="evenodd"></path><path id="path2" d="M68.382 61.333 C 68.313 61.594,68.154 61.667,67.647 61.667 C 67.111 61.667,67.000 61.724,67.000 62.000 C 67.000 62.222,66.889 62.333,66.667 62.333 C 66.444 62.333,66.333 62.444,66.333 62.667 C 66.333 62.889,66.222 63.000,66.000 63.000 C 65.722 63.000,65.667 63.111,65.667 63.667 C 65.667 64.222,65.611 64.333,65.333 64.333 C 65.016 64.333,65.000 64.444,65.000 66.599 C 65.000 68.724,65.021 68.870,65.333 68.952 C 65.518 69.000,65.667 69.179,65.667 69.353 C 65.667 69.556,65.785 69.667,66.000 69.667 C 66.222 69.667,66.333 69.778,66.333 70.000 C 66.333 70.222,66.444 70.333,66.667 70.333 C 66.889 70.333,67.000 70.444,67.000 70.667 C 67.000 70.944,67.111 71.000,67.667 71.000 C 68.222 71.000,68.333 71.056,68.333 71.333 C 68.333 71.651,68.444 71.667,70.667 71.667 C 72.889 71.667,73.000 71.651,73.000 71.333 C 73.000 71.056,73.111 71.000,73.667 71.000 C 74.222 71.000,74.333 70.944,74.333 70.667 C 74.333 70.444,74.444 70.333,74.667 70.333 C 74.889 70.333,75.000 70.222,75.000 70.000 C 75.000 69.778,75.111 69.667,75.333 69.667 C 75.611 69.667,75.667 69.556,75.667 69.000 C 75.667 68.444,75.722 68.333,76.000 68.333 C 76.315 68.333,76.333 68.222,76.333 66.333 C 76.333 64.444,76.315 64.333,76.000 64.333 C 75.722 64.333,75.667 64.222,75.667 63.667 C 75.667 63.111,75.611 63.000,75.333 63.000 C 75.111 63.000,75.000 62.889,75.000 62.667 C 75.000 62.451,74.889 62.333,74.686 62.333 C 74.512 62.333,74.333 62.184,74.285 62.000 C 74.219 61.747,74.058 61.667,73.618 61.667 C 73.179 61.667,73.018 61.586,72.952 61.333 C 72.870 61.021,72.724 61.000,70.667 61.000 C 68.609 61.000,68.463 61.021,68.382 61.333 " stroke="none" fill="#ec4424" fill-rule="evenodd"></path><path id="path3" d="M190.487 62.403 C 190.240 62.672,190.415 62.977,190.679 62.739 C 190.856 62.579,191.000 62.435,191.000 62.419 C 191.000 62.390,190.513 62.375,190.487 62.403 M189.719 69.163 C 189.752 69.380,189.910 69.575,190.071 69.599 C 190.343 69.639,190.342 69.618,190.058 69.279 C 189.890 69.080,189.732 68.884,189.706 68.843 C 189.680 68.803,189.686 68.947,189.719 69.163 M199.261 69.987 C 198.985 70.292,198.986 70.306,199.263 70.265 C 199.424 70.242,199.574 70.097,199.596 69.944 C 199.648 69.592,199.616 69.596,199.261 69.987 M191.070 70.611 C 191.093 70.764,191.243 70.908,191.403 70.932 C 191.681 70.973,191.681 70.959,191.405 70.654 C 191.051 70.263,191.018 70.258,191.070 70.611 M197.261 71.321 C 196.985 71.626,196.986 71.639,197.263 71.599 C 197.424 71.575,197.574 71.431,197.596 71.278 C 197.648 70.925,197.616 70.929,197.261 71.321 " stroke="none" fill="#589040" fill-rule="evenodd"></path><path id="path4" d="" stroke="none" fill="#5c4c40" fill-rule="evenodd"></path></g></svg>